<svg xmlns="http://www.w3.org/2000/svg" xmlns:xlink="http://www.w3.org/1999/xlink" version="1.1" style="" xml:space="preserve" width="512" height="512"><rect id="backgroundrect" width="100%" height="100%" x="0" y="0" fill="none" stroke="none"/>

















<g class="currentLayer" style=""><title>Layer 1</title><g id="svg_4" class="selected" fill="#000000" fill-opacity="1">
	<g id="svg_5" fill="#000000" fill-opacity="1">
		<path d="M78.06391783371879,10.956299279483645 V501.0437195541434 H433.93610116562934 V10.956299279483645 H78.06391783371879 zM195.3036131677979,94.36921184446967 c22.554438197650203,0 40.33305819254532,8.23185811676719 51.691925625023046,23.046765463257007 l-24.52862178745966,21.893939737355936 c-6.7500017925645395,-8.560888715068765 -14.814907346489818,-13.500003585129077 -25.18668298406281,-13.500003585129077 c-16.133467003387246,0 -26.997569906567033,11.194352133326928 -26.997569906567033,28.80845682907126 c0,17.614104695744334 10.865321535025354,28.80845682907126 26.997569906567033,28.80845682907126 c10.37177563757299,0 18.437899823343834,-4.939114870060316 25.18668298406281,-13.500003585129077 l24.52862178745966,21.893939737355936 c-11.358867432477718,14.814907346489818 -29.1387060592184,23.046765463257007 -51.691925625023046,23.046765463257007 c-37.040314945838446,0 -64.20240015155626,-24.857652385761234 -64.20240015155626,-60.25159570824625 C131.10121301624162,119.22686423023092 158.26451685380502,94.36921184446967 195.3036131677979,94.36921184446967 zM375.30162991644306,423.74712022203005 H136.6971704510595 V387.1625735864315 h238.60445946538348 V423.74712022203005 zM375.30162991644306,358.67339830089736 H136.6971704510595 v-36.58454663559849 h238.60445946538348 V358.67339830089736 zM375.30162991644306,293.5996763797647 H136.6971704510595 v-36.58454663559849 h238.60445946538348 V293.5996763797647 zM332.60198867981745,212.23893984270404 h-38.19314067173952 l-48.72821297661774,-115.23626457997617 h41.81491451674798 l27.492334435864958,67.33062809911236 l28.151614264313668,-67.33062809911236 h38.19070340804841 L332.60198867981745,212.23893984270404 z" id="svg_6" fill="#000000" fill-opacity="1"/>
	</g>
</g><g id="svg_7">
</g><g id="svg_8">
</g><g id="svg_9">
</g><g id="svg_10">
</g><g id="svg_11">
</g><g id="svg_12">
</g><g id="svg_13">
</g><g id="svg_14">
</g><g id="svg_15">
</g><g id="svg_16">
</g><g id="svg_17">
</g><g id="svg_18">
</g><g id="svg_19">
</g><g id="svg_20">
</g><g id="svg_21">
</g></g></svg>