<svg xmlns="http://www.w3.org/2000/svg" xmlns:xlink="http://www.w3.org/1999/xlink" height="448" style="" version="1.1" width="448" xml:space="preserve"><rect id="backgroundrect" width="100%" height="100%" x="0" y="0" fill="none" stroke="none" class="" style=""/><style type="text/css"><![CDATA[
	.st0{fill-rule:evenodd;clip-rule:evenodd;}
]]></style><g class="currentLayer" style=""><title>Layer 1</title><g fill="#000000" id="svg_1" class="" fill-opacity="1"><path class="st0" d="M224,0 C100.30000000000001,0 0,102.80000000000001 0,229.7 c0,101.5 64.2,187.5 153.2,217.9 c11.2,2.1 15.3,-5 15.3,-11.1 c0,-5.5 -0.2,-19.9 -0.3000000000000001,-39.1 c-62.3,13.9 -75.5,-30.8 -75.5,-30.8 c-10.2,-26.5 -24.9,-33.6 -24.9,-33.6 c-20.3,-14.3 1.5,-14 1.5,-14 c22.5,1.6 34.3,23.7 34.3,23.7 c20,35.1 52.4,25 65.2,19.1 c2,-14.8 7.8,-25 14.2,-30.7 c-49.7,-5.8 -102,-25.5 -102,-113.5 c0,-25.1 8.7,-45.6 23,-61.6 c-2.3,-5.8 -10,-29.2 2.2,-60.8 c0,0 18.8,-6.2 61.6,23.5 c17.9,-5.1 37,-7.6 56.1,-7.7 c19,0.1 38.2,2.6 56.1,7.7 c42.8,-29.7 61.5,-23.5 61.5,-23.5 c12.2,31.6 4.5,55 2.2,60.8 c14.3,16.1 23,36.6 23,61.6 c0,88.2 -52.4,107.6 -102.3,113.3 c8,7.1 15.2,21.1 15.2,42.5 c0,30.7 -0.3000000000000001,55.5 -0.3000000000000001,63 c0,6.1 4,13.3 15.4,11 C383.9,417.1 448,331.1 448,229.7 C448,102.80000000000001 347.7,0 224,0 z" id="svg_2" fill="#000000" fill-opacity="1"/></g></g></svg>