<svg xmlns="http://www.w3.org/2000/svg" role="img" width="128" height="128" style=""><rect id="backgroundrect" width="100%" height="100%" x="0" y="0" fill="none" stroke="none" class="" style=""/><title>Kaggle icon</title><g class="currentLayer" style=""><title>Layer 1</title><path d="M96.71992588894592,120.84879910570437 c-0.10546197737156912,0.44102281446292346 -0.5608659705669796,0.6759154004268727 -1.3470370746095774,0.6759154004268727 h-15.047506680425132 c-0.8964268076583339,0 -1.6825979117009318,-0.39308555202130135 -2.3585133121278012,-1.1888441085522252 l-24.821914492271848,-31.5858622227847 l-6.941315601546859,6.5865798594788565 v24.50073483391298 c0,1.1265256673781163 -0.5608659705669796,1.687391637945095 -1.6825979117009318,1.687391637945095 H32.86749231670541 c-1.131319393622279,0 -1.696979090433421,-0.5608659705669796 -1.696979090433421,-1.687391637945095 V8.167470010427767 c0,-1.1169382148897915 0.5656596968111417,-1.6921853641892586 1.696979090433421,-1.6921853641892586 h11.653548499558294 c1.1217319411339541,0 1.6825979117009318,0.5752471492994654 1.6825979117009318,1.6921853641892586 v68.75641552001836 l29.73548389253809,-30.06625100338529 c0.7909648302867651,-0.7909648302867651 1.5819296605735262,-1.1792566560639006 2.372894490860287,-1.1792566560639006 h15.52687930484135 c0.6902965791593576,0 1.131319393622279,0.28762357464973376 1.3662119795862275,0.8628707239491972 c0.22051140723146181,0.7142652103801698 0.1629866923015154,1.22240019226136 -0.1725741447898397,1.5100237669110919 l-31.422875530483193,30.411399292964973 l32.76991260509276,40.780229159087796 c0.45540399319540886,0.49854752939286945 0.5608659705669796,0.9970950587857366 0.3355608370913555,1.7161539954100689 " id="svg_1" class="" fill="#1ac0ff" fill-opacity="1"/></g></svg>