<svg xmlns="http://www.w3.org/2000/svg" role="img" width="128" height="128" style=""><rect id="backgroundrect" width="100%" height="100%" x="0" y="0" fill="none" stroke="none" class="" style=""/><title>Kaggle icon</title><g class="currentLayer" style=""><title>Layer 1</title><path d="M96.71992207424866,120.84879529100711 c-0.10546197737156907,0.44102281446292335 -0.5608659705669796,0.6759154004268721 -1.3470370746095774,0.6759154004268721 h-15.047506680425132 c-0.8964268076583337,0 -1.6825979117009318,-0.39308555202130135 -2.3585133121278012,-1.1888441085522252 l-24.821914492271848,-31.5858622227847 l-6.941315601546859,6.5865798594788565 v24.50073483391298 c0,1.1265256673781163 -0.5608659705669796,1.6873916379450944 -1.6825979117009318,1.6873916379450944 H32.86748850200814 c-1.131319393622279,0 -1.6969790904334203,-0.5608659705669796 -1.6969790904334203,-1.6873916379450944 V8.167466195730501 c0,-1.1169382148897915 0.5656596968111413,-1.6921853641892586 1.6969790904334203,-1.6921853641892586 h11.653548499558294 c1.1217319411339541,0 1.6825979117009318,0.5752471492994654 1.6825979117009318,1.6921853641892586 v68.75641552001836 l29.73548389253809,-30.06625100338529 c0.7909648302867651,-0.7909648302867651 1.5819296605735258,-1.1792566560639006 2.372894490860287,-1.1792566560639006 h15.52687930484135 c0.6902965791593576,0 1.131319393622279,0.28762357464973365 1.3662119795862275,0.8628707239491968 c0.2205114072314617,0.7142652103801695 0.16298669230151536,1.22240019226136 -0.17257414478983968,1.5100237669110919 l-31.422875530483193,30.411399292964973 l32.76991260509276,40.780229159087796 c0.4554039931954087,0.4985475293928692 0.5608659705669796,0.9970950587857366 0.33556083709135537,1.7161539954100689 " id="svg_1" class="selected" fill="#ffffff" fill-opacity="1"/></g></svg>