<svg xmlns="http://www.w3.org/2000/svg" width="1036" height="990" style=""><rect id="backgroundrect" width="100%" height="100%" x="0" y="0" fill="none" stroke="none"/><g class="currentLayer" style=""><title>Layer 1</title><path d="M0,115 c0,-33.334 11.667,-60.834 35,-82.5 C58.333,10.833 88.667,0 126,0 c36.667,0 66.333,10.666 89,32 c23.333,22 35,50.666 35,86 c0,32 -11.333,58.666 -34,80 c-23.333,22 -54,33 -92,33 h-1 c-36.667,0 -66.333,-11 -89,-33 S0,148.333 0,115 zm13,875 V322 h222 v668 H13 zm345,0 h222 V617 c0,-23.334 2.6670000000000007,-41.334 8,-54 c9.333,-22.667 23.5,-41.834 42.5,-57.5 c19,-15.667 42.833,-23.5 71.5,-23.5 c74.667,0 112,50.333 112,151 v357 h222 V607 c0,-98.667 -23.333,-173.5 -70,-224.5 S857.667,306 781,306 c-86,0 -153,37 -201,111 v2 h-1 l1,-2 v-95 H358 c1.3330000000000002,21.333 2,87.666 2,199 c0,111.333 -0.6670000000000007,267.666 -2,469 z" id="svg_1" class="selected" fill="#ffffff" fill-opacity="1"/><path fill="#ffffff" fill-opacity="1" stroke="#000000" stroke-opacity="1" stroke-width="1" stroke-dasharray="none" stroke-linejoin="miter" stroke-linecap="butt" stroke-dashoffset="" fill-rule="nonzero" opacity="1" marker-start="" marker-mid="" marker-end="" id="svg_2" d="M461.6000061035156,437 " style="color: rgb(0, 0, 0);"/></g></svg>