<svg xmlns="http://www.w3.org/2000/svg" xmlns:xlink="http://www.w3.org/1999/xlink" width="256" height="256" style=""><rect id="backgroundrect" width="100%" height="100%" x="0" y="0" fill="none" stroke="none" class="" style=""/>
<defs>
	<linearGradient id="b" x1="0.666700005531311" y1="0.16670000553131104" x2="0.41670000553131104" y2="0.75">
		<stop stop-color="#37aee2" offset="0"/>
		<stop stop-color="#1e96c8" offset="1"/>
	</linearGradient>
	<linearGradient id="w" x1="0.6596999764442444" y1="0.43689998984336853" x2="0.8511999845504761" y2="0.8023999929428101">
		<stop stop-color="#eff7fc" offset="0"/>
		<stop stop-color="#fff" offset="1"/>
	</linearGradient>
</defs>




<g class="currentLayer" style=""><title>Layer 1</title><g class="" id="svg_1"><path fill="#c8daea" d="m96.43590313636815,221.91032286871734 c-7.590937501096725,0 -6.301048285841942,-2.8662252180933963 -8.919097725462914,-10.093978653132917 L65.19426304542577,138.35045598023004 L237.02328354560888,36.413084828746946 " id="svg_2" class=""/><path fill="#a9c9dd" d="m96.43590313636815,221.91032286871734 c5.857807517051697,0 8.445982138335705,-2.6789706377983102 11.715615034103394,-5.857807517051697 l31.241640090942383,-30.378589783430098 l-38.97004080843925,-23.499571155905723 " id="svg_3" class=""/><path fill="url(#w)" d="m100.41921224796332,162.18021221984688 l94.42785717487335,69.76453492558002 c10.775436927616596,5.945479369556904 18.552457447505,2.8672015193462372 21.236504851818083,-10.004158937871455 l38.43698032438755,-181.12926623475553 c3.93527508995533,-15.77741876642704 -6.014210977756977,-22.933316429257395 -16.322585386013987,-18.253318743634225 l-225.70132363200187,87.02944628083705 c-15.406229030096531,6.179401149737835 -15.316409314835072,14.77456211950779 -2.8082329236745838,18.604396674156188 l57.92004812610149,18.07777977837324 l134.09107187283038,-84.59650355875493 c6.330142063176632,-3.838621265923977 12.139915558588504,-1.774896151641608 7.371464979457855,2.4571549931526184 " id="svg_4" class=""/></g></g></svg>